<svg width="42" height="38" viewBox="0 0 42 38" fill="none" xmlns="http://www.w3.org/2000/svg">
<path d="M36.033 11.1679C36.0229 11.1179 36.008 11.0687 35.9885 11.0211C35.9689 10.9742 35.9447 10.9289 35.9166 10.8867C35.8877 10.8437 35.8557 10.8039 35.8189 10.7679C35.7829 10.732 35.7432 10.6992 35.7001 10.6711C35.6579 10.6429 35.6127 10.6187 35.5657 10.5992C35.5189 10.5797 35.4697 10.564 35.4196 10.5547C35.3189 10.5344 35.215 10.5344 35.1142 10.5547C35.0642 10.564 35.015 10.5797 34.9682 10.5992C34.9213 10.6187 34.876 10.6422 34.833 10.6711C34.7907 10.6992 34.7502 10.732 34.7143 10.7679C34.6783 10.8039 34.6454 10.8437 34.6174 10.8867C34.5892 10.9289 34.565 10.9742 34.5455 11.0211C34.526 11.0687 34.5111 11.1179 34.501 11.1679C34.4908 11.2179 34.4854 11.2695 34.4854 11.3203C34.4854 11.3711 34.4908 11.4226 34.501 11.4726C34.5111 11.5226 34.526 11.5719 34.5455 11.6187C34.565 11.6664 34.5893 11.7117 34.6174 11.7539C34.6454 11.7969 34.6783 11.8367 34.7143 11.8726C34.7502 11.9086 34.7908 11.9414 34.833 11.9695C34.8759 11.9976 34.9212 12.0219 34.9682 12.0414C35.015 12.0609 35.0642 12.0758 35.1142 12.0859C35.165 12.0961 35.2158 12.1015 35.2665 12.1015C35.4728 12.1015 35.6736 12.018 35.8189 11.8726C35.8557 11.8367 35.8877 11.7969 35.9166 11.7539C35.9447 11.7117 35.9689 11.6664 35.9885 11.6187C36.008 11.5719 36.0229 11.5226 36.033 11.4726C36.0432 11.4226 36.0479 11.3711 36.0479 11.3203C36.0479 11.2695 36.0432 11.2179 36.033 11.1679Z" fill="white"/>
<path d="M41.2188 0.108398H2.78125C2.34977 0.108398 2 0.458164 2 0.889648V7.64371C2 8.07519 2.34977 8.42496 2.78125 8.42496H3.8757V37.1103C3.8757 37.5418 4.22547 37.8915 4.65695 37.8915H39.343C39.7745 37.8915 40.1243 37.5418 40.1243 37.1103V8.42496H41.2188C41.6502 8.42496 42 8.07519 42 7.64371V0.889648C42 0.458164 41.6502 0.108398 41.2188 0.108398ZM16.8502 1.6709H27.1498V6.86246H16.8502V1.6709ZM16.8502 8.42496H27.1498V18.6308L25.4091 17.4234C25.1413 17.2377 24.7864 17.2377 24.5187 17.4233L22 19.1695L19.4812 17.4232C19.3473 17.3304 19.1917 17.284 19.0361 17.284C18.8804 17.284 18.7247 17.3305 18.5908 17.4233L16.8502 18.6307V8.42496ZM3.5625 6.86246V1.6709H15.2877V6.86246H3.5625ZM15.2877 8.42496V10.539H5.4382V8.42496H15.2877ZM23.2149 22.5448V36.329H5.4382V12.1014H15.2877V20.1235C15.2877 20.4142 15.4491 20.6808 15.7067 20.8157C15.9643 20.9505 16.2755 20.9311 16.5143 20.7654L19.0362 19.0161L21.5548 20.7622C21.8226 20.9478 22.1774 20.9478 22.4451 20.7622L24.9638 19.0161L27.4857 20.7654C27.6189 20.8578 27.7746 20.9047 27.931 20.9047C28.0549 20.9047 28.1794 20.8752 28.2932 20.8157C28.5508 20.6808 28.7122 20.4142 28.7122 20.1235V12.1014H32.1389C32.5703 12.1014 32.9202 11.7517 32.9202 11.3202C32.9202 10.8887 32.5703 10.5389 32.1389 10.5389H28.7122V8.42488H38.5617V21.7636H23.9962C23.5648 21.7636 23.2149 22.1133 23.2149 22.5448ZM38.5618 36.329H24.7774V23.326H38.5618V36.329ZM40.4375 6.86246H28.7123V1.6709H40.4375V6.86246Z" fill="white"/>
<path d="M37.2022 28.153C37.0264 26.4142 35.6157 25.1063 33.9102 25.1063C33.0804 25.1063 32.328 25.4401 31.7588 26.0345C31.1429 25.4601 30.3091 25.1063 29.4637 25.1063C27.7731 25.1063 26.4729 26.3578 26.2935 28.1533C26.27 28.3122 26.236 28.7333 26.3899 29.3534C26.6228 30.2901 27.1567 31.139 27.9397 31.813L31.1957 34.5603C31.3537 34.6948 31.5507 34.7621 31.7477 34.7621C31.9445 34.7621 32.1413 34.6951 32.2993 34.5608L35.5614 31.8082C36.3388 31.1397 36.8727 30.2908 37.1056 29.3534C37.2598 28.733 37.2255 28.3117 37.2022 28.153ZM35.5891 28.9766C35.4348 29.598 35.0729 30.1674 34.5481 30.6188L31.7477 32.9818L28.9531 30.6237C28.4225 30.167 28.0606 29.5975 27.9063 28.9767C27.8248 28.6481 27.8334 28.4462 27.8375 28.3958C27.8453 28.3651 27.8428 28.3651 27.8465 28.325C27.9237 27.5005 28.4536 26.6687 29.4636 26.6687C30.1313 26.6687 30.8092 27.1032 31.0753 27.7018C31.2008 27.9838 31.4806 28.1656 31.7892 28.1656C31.7892 28.1656 31.7893 28.1656 31.7894 28.1656C32.0981 28.1655 32.3779 27.9837 32.5032 27.7016C32.6746 27.3159 33.0852 26.6687 33.9102 26.6687C34.8279 26.6687 35.5592 27.3653 35.6491 28.3251C35.6528 28.3651 35.6502 28.3651 35.6581 28.3958C35.6621 28.4462 35.6708 28.6481 35.5891 28.9766Z" fill="white"/>
<path d="M34.033 11.1679C34.0229 11.1179 34.008 11.0687 33.9885 11.0211C33.9689 10.9742 33.9447 10.9289 33.9166 10.8867C33.8877 10.8437 33.8557 10.8039 33.8189 10.7679C33.7829 10.732 33.7432 10.6992 33.7001 10.6711C33.6579 10.6429 33.6127 10.6187 33.5657 10.5992C33.5189 10.5797 33.4697 10.564 33.4196 10.5547C33.3189 10.5344 33.215 10.5344 33.1142 10.5547C33.0642 10.564 33.015 10.5797 32.9682 10.5992C32.9213 10.6187 32.876 10.6422 32.833 10.6711C32.7907 10.6992 32.7502 10.732 32.7143 10.7679C32.6783 10.8039 32.6454 10.8437 32.6174 10.8867C32.5892 10.9289 32.565 10.9742 32.5455 11.0211C32.526 11.0687 32.5111 11.1179 32.501 11.1679C32.4908 11.2179 32.4854 11.2695 32.4854 11.3203C32.4854 11.3711 32.4908 11.4226 32.501 11.4726C32.5111 11.5226 32.526 11.5719 32.5455 11.6187C32.565 11.6664 32.5893 11.7117 32.6174 11.7539C32.6454 11.7969 32.6783 11.8367 32.7143 11.8726C32.7502 11.9086 32.7908 11.9414 32.833 11.9695C32.8759 11.9976 32.9212 12.0219 32.9682 12.0414C33.015 12.0609 33.0642 12.0758 33.1142 12.0859C33.165 12.0961 33.2158 12.1015 33.2665 12.1015C33.4728 12.1015 33.6736 12.018 33.8189 11.8726C33.8557 11.8367 33.8877 11.7969 33.9166 11.7539C33.9447 11.7117 33.9689 11.6664 33.9885 11.6187C34.008 11.5719 34.0229 11.5226 34.033 11.4726C34.0432 11.4226 34.0479 11.3711 34.0479 11.3203C34.0479 11.2695 34.0432 11.2179 34.033 11.1679Z" fill="#333333"/>
<path d="M39.2188 0.108398H0.78125C0.349766 0.108398 0 0.458164 0 0.889648V7.64371C0 8.07519 0.349766 8.42496 0.78125 8.42496H1.8757V37.1103C1.8757 37.5418 2.22547 37.8915 2.65695 37.8915H37.343C37.7745 37.8915 38.1243 37.5418 38.1243 37.1103V8.42496H39.2188C39.6502 8.42496 40 8.07519 40 7.64371V0.889648C40 0.458164 39.6502 0.108398 39.2188 0.108398ZM14.8502 1.6709H25.1498V6.86246H14.8502V1.6709ZM14.8502 8.42496H25.1498V18.6308L23.4091 17.4234C23.1413 17.2377 22.7864 17.2377 22.5187 17.4233L20 19.1695L17.4812 17.4232C17.3473 17.3304 17.1917 17.284 17.0361 17.284C16.8804 17.284 16.7247 17.3305 16.5908 17.4233L14.8502 18.6307V8.42496ZM1.5625 6.86246V1.6709H13.2877V6.86246H1.5625ZM13.2877 8.42496V10.539H3.4382V8.42496H13.2877ZM21.2149 22.5448V36.329H3.4382V12.1014H13.2877V20.1235C13.2877 20.4142 13.4491 20.6808 13.7067 20.8157C13.9643 20.9505 14.2755 20.9311 14.5143 20.7654L17.0362 19.0161L19.5548 20.7622C19.8226 20.9478 20.1774 20.9478 20.4451 20.7622L22.9638 19.0161L25.4857 20.7654C25.6189 20.8578 25.7746 20.9047 25.931 20.9047C26.0549 20.9047 26.1794 20.8752 26.2932 20.8157C26.5508 20.6808 26.7122 20.4142 26.7122 20.1235V12.1014H30.1389C30.5703 12.1014 30.9202 11.7517 30.9202 11.3202C30.9202 10.8887 30.5703 10.5389 30.1389 10.5389H26.7122V8.42488H36.5617V21.7636H21.9962C21.5648 21.7636 21.2149 22.1133 21.2149 22.5448ZM36.5618 36.329H22.7774V23.326H36.5618V36.329ZM38.4375 6.86246H26.7123V1.6709H38.4375V6.86246Z" fill="#333333"/>
<path d="M35.2022 28.153C35.0264 26.4142 33.6157 25.1063 31.9102 25.1063C31.0804 25.1063 30.328 25.4401 29.7588 26.0345C29.1429 25.4601 28.3091 25.1063 27.4637 25.1063C25.7731 25.1063 24.4729 26.3578 24.2935 28.1533C24.27 28.3122 24.236 28.7333 24.3899 29.3534C24.6228 30.2901 25.1567 31.139 25.9397 31.813L29.1957 34.5603C29.3537 34.6948 29.5507 34.7621 29.7477 34.7621C29.9445 34.7621 30.1413 34.6951 30.2993 34.5608L33.5614 31.8082C34.3388 31.1397 34.8727 30.2908 35.1056 29.3534C35.2598 28.733 35.2255 28.3117 35.2022 28.153ZM33.5891 28.9766C33.4348 29.598 33.0729 30.1674 32.5481 30.6188L29.7477 32.9818L26.9531 30.6237C26.4225 30.167 26.0606 29.5975 25.9063 28.9767C25.8248 28.6481 25.8334 28.4462 25.8375 28.3958C25.8453 28.3651 25.8428 28.3651 25.8465 28.325C25.9237 27.5005 26.4536 26.6687 27.4636 26.6687C28.1313 26.6687 28.8092 27.1032 29.0753 27.7018C29.2008 27.9838 29.4806 28.1656 29.7892 28.1656C29.7892 28.1656 29.7893 28.1656 29.7894 28.1656C30.0981 28.1655 30.3779 27.9837 30.5032 27.7016C30.6746 27.3159 31.0852 26.6687 31.9102 26.6687C32.8279 26.6687 33.5592 27.3653 33.6491 28.3251C33.6528 28.3651 33.6502 28.3651 33.6581 28.3958C33.6621 28.4462 33.6708 28.6481 33.5891 28.9766Z" fill="#333333"/>
</svg>
