<svg width="55" height="40" viewBox="0 0 55 40" fill="none" xmlns="http://www.w3.org/2000/svg">
<path d="M47.1211 32.935C47.1211 35.7952 45.3516 38.1353 43.1398 38.1353C40.928 38.1353 39.1584 35.7952 39.1584 32.935C39.1584 30.0749 40.928 27.7347 43.1398 27.7347C45.3516 27.7347 47.1211 30.0749 47.1211 32.935Z" fill="#FECC00"/>
<path d="M15.3598 32.935C15.3598 35.7952 13.5902 38.1353 11.3784 38.1353C9.16661 38.1353 7.39709 35.7952 7.39709 32.935C7.39709 30.0749 9.16661 27.7347 11.3784 27.7347C13.5902 27.7347 15.3598 30.0749 15.3598 32.935Z" fill="#FECC00"/>
<path d="M52.3151 16.4674H47.0066L39.6632 8.49362C39.3094 8.06022 38.69 7.80021 38.1591 7.80021H28.427V3.37996C28.427 1.99325 27.2768 0.866455 25.8612 0.866455H7.10485C5.68929 0.866455 4.53906 1.99315 4.53906 3.37996V22.5344H28.4271V32.935H38.1592C38.1592 30.0748 40.548 27.7347 43.4677 27.7347C46.3873 27.7347 48.7761 30.0748 48.7761 32.935H52.0496C52.6689 32.935 53.1998 32.4149 53.1998 31.8083V18.1142C53.1999 17.5941 52.669 16.8141 52.3151 16.4674Z" fill="white"/>
<path d="M30.3117 23.4013H2V3.38019C2 1.47345 3.50409 0 5.45049 0H26.9497C28.8076 0 30.3117 1.47345 30.3117 3.38019V23.4013ZM3.76952 21.6678H28.5422V3.38019C28.5422 2.51351 27.8344 1.73346 26.8612 1.73346H5.45049C4.47724 1.73346 3.76952 2.42687 3.76952 3.38019V21.6678Z" fill="white"/>
<path d="M44.4673 39.0021C41.0168 39.0021 38.2742 36.3153 38.2742 32.9351C38.2742 29.5549 41.0168 26.8682 44.4673 26.8682C47.9178 26.8682 50.6605 29.5549 50.6605 32.9351C50.6605 36.3153 47.9178 39.0021 44.4673 39.0021ZM44.4673 28.6015C41.9901 28.6015 40.0436 30.5083 40.0436 32.9351C40.0436 35.362 41.99 37.2687 44.4673 37.2687C46.9446 37.2687 48.8911 35.362 48.8911 32.9351C48.8911 30.5083 46.9446 28.6015 44.4673 28.6015Z" fill="white"/>
<path d="M12.6172 39.0021C9.16673 39.0021 6.42407 36.3153 6.42407 32.9351C6.42407 29.5549 9.16673 26.8682 12.6172 26.8682C16.0677 26.8682 18.8104 29.5549 18.8104 32.9351C18.8104 36.3153 16.0677 39.0021 12.6172 39.0021ZM12.6172 28.6015C10.14 28.6015 8.19348 30.5083 8.19348 32.9351C8.19348 35.362 10.1399 37.2687 12.6172 37.2687C15.0946 37.2687 17.041 35.362 17.041 32.9351C17.041 30.5083 15.0945 28.6015 12.6172 28.6015Z" fill="white"/>
<path d="M53.758 23.4013H38.7173C38.1865 23.4013 37.8326 23.0547 37.8326 22.5346C37.8326 22.0146 38.1865 21.668 38.7173 21.668H53.758C54.2888 21.668 54.6427 22.0146 54.6427 22.5346C54.6427 23.0546 54.2888 23.4013 53.758 23.4013Z" fill="white"/>
<path d="M16.1558 15.6008H2.88471C2.35386 15.6008 2 15.2541 2 14.7341C2 14.2141 2.35386 13.8674 2.88471 13.8674H16.1558C16.6867 13.8674 17.0405 14.2141 17.0405 14.7341C17.0406 15.254 16.6867 15.6008 16.1558 15.6008Z" fill="white"/>
<path d="M12.6169 11.2671H2.88471C2.35386 11.2671 2 10.9204 2 10.4004C2 9.88034 2.35386 9.53369 2.88471 9.53369H12.6169C13.1477 9.53369 13.5016 9.88034 13.5016 10.4004C13.5016 10.9204 13.1477 11.2671 12.6169 11.2671Z" fill="white"/>
<path d="M50.253 33.8019H46.891V32.9353C46.891 30.5085 44.9446 28.6017 42.4672 28.6017C39.99 28.6017 38.0435 30.5084 38.0435 32.9353V33.8019H26.542V6.93372H37.4243C38.663 6.93372 39.7247 7.45375 40.5209 8.40717L46.3602 15.6009L46.4487 15.6876H50.1646C51.7571 15.6876 52.9958 16.9876 52.9958 18.4611V31.0284C53.0842 32.5019 51.7571 33.8019 50.253 33.8019ZM48.572 32.0685H50.1646C50.7839 32.0685 51.2263 31.5485 51.2263 30.9418V18.4611C51.2263 17.8544 50.6954 17.421 50.1646 17.421H46.4487C45.8294 17.421 45.2985 17.161 44.9446 16.7276L39.1053 9.53386C38.7514 8.92719 38.132 8.66718 37.4243 8.66718H28.3115V32.0685H36.3626C36.805 29.1217 39.3707 26.8682 42.4673 26.8682C45.564 26.8682 48.1296 29.1217 48.572 32.0685Z" fill="white"/>
<path d="M30.3117 33.802H17.0406V32.9353C17.0406 30.5086 15.0942 28.6017 12.6169 28.6017C10.1395 28.6017 8.19315 30.5085 8.19315 32.9353V33.802H4.65422C3.15013 33.802 2 32.6753 2 31.2019V21.668H30.3117V33.802ZM18.7216 32.0685H28.5422V23.4014H3.76952V31.2019C3.76952 31.7219 4.12338 32.0685 4.65422 32.0685H6.51218C6.95458 29.1218 9.52026 26.8683 12.6169 26.8683C15.7135 26.8683 18.2792 29.1218 18.7216 32.0685Z" fill="white"/>
<path d="M14.3863 32.935C14.3863 33.8884 13.5901 34.6685 12.6168 34.6685C11.6436 34.6685 10.8473 33.8884 10.8473 32.935C10.8473 31.9816 11.6436 31.2015 12.6168 31.2015C13.5901 31.2015 14.3863 31.9817 14.3863 32.935Z" fill="white"/>
<path d="M46.2374 32.935C46.2374 33.8884 45.4411 34.6685 44.4679 34.6685C43.4946 34.6685 42.6984 33.8884 42.6984 32.935C42.6984 31.9816 43.4946 31.2015 44.4679 31.2015C45.4411 31.2016 46.2374 31.9817 46.2374 32.935Z" fill="white"/>
<path d="M47.742 14.7341H36.2404C34.9132 14.7341 33.8516 13.6941 33.8516 12.394V6.93372H39.4254C40.6641 6.93372 41.7258 7.45375 42.5221 8.40717L47.742 14.7341ZM35.6211 8.66718V12.394C35.6211 12.7407 35.8865 13.0007 36.2404 13.0007H44.1146L41.1949 9.44712C40.7525 8.92709 40.1333 8.66708 39.4254 8.66708L35.6211 8.66718Z" fill="white"/>
<path d="M44.202 32.935C44.202 35.7952 42.4686 38.1353 40.3018 38.1353C38.1351 38.1353 36.4016 35.7952 36.4016 32.935C36.4016 30.0749 38.1351 27.7347 40.3018 27.7347C42.4686 27.7347 44.202 30.0749 44.202 32.935Z" fill="#FECC00"/>
<path d="M13.0878 32.935C13.0878 35.7952 11.3543 38.1353 9.18757 38.1353C7.02082 38.1353 5.28735 35.7952 5.28735 32.935C5.28735 30.0749 7.02082 27.7347 9.18757 27.7347C11.3543 27.7347 13.0878 30.0749 13.0878 32.935Z" fill="#FECC00"/>
<path d="M50.2691 16.4674H45.0688L37.875 8.49362C37.5283 8.06022 36.9216 7.80021 36.4015 7.80021H26.8676V3.37996C26.8676 1.99325 25.7409 0.866455 24.3541 0.866455H5.97994C4.59323 0.866455 3.46643 1.99315 3.46643 3.37996V22.5344H26.8677V32.935H36.4016C36.4016 30.0748 38.7418 27.7347 41.6019 27.7347C44.4621 27.7347 46.8022 30.0748 46.8022 32.935H50.009C50.6157 32.935 51.1357 32.4149 51.1357 31.8083V18.1142C51.1358 17.5941 50.6158 16.8141 50.2691 16.4674Z" fill="#FED100"/>
<path d="M27.7349 23.4013H0V3.38019C0 1.47345 1.47345 0 3.38019 0H24.4414C26.2615 0 27.7349 1.47345 27.7349 3.38019V23.4013ZM1.73346 21.6678H26.0014V3.38019C26.0014 2.51351 25.308 1.73346 24.3547 1.73346H3.38019C2.42677 1.73346 1.73346 2.42687 1.73346 3.38019V21.6678Z" fill="#333333"/>
<path d="M41.6019 39.0021C38.2217 39.0021 35.5349 36.3153 35.5349 32.9351C35.5349 29.5549 38.2217 26.8682 41.6019 26.8682C44.9821 26.8682 47.6689 29.5549 47.6689 32.9351C47.6689 36.3153 44.9821 39.0021 41.6019 39.0021ZM41.6019 28.6015C39.1751 28.6015 37.2683 30.5083 37.2683 32.9351C37.2683 35.362 39.175 37.2687 41.6019 37.2687C44.0287 37.2687 45.9355 35.362 45.9355 32.9351C45.9355 30.5083 44.0287 28.6015 41.6019 28.6015Z" fill="#333333"/>
<path d="M10.401 39.0021C7.02077 39.0021 4.33398 36.3153 4.33398 32.9351C4.33398 29.5549 7.02077 26.8682 10.401 26.8682C13.7811 26.8682 16.4679 29.5549 16.4679 32.9351C16.4679 36.3153 13.7811 39.0021 10.401 39.0021ZM10.401 28.6015C7.97419 28.6015 6.06735 30.5083 6.06735 32.9351C6.06735 35.362 7.97409 37.2687 10.401 37.2687C12.8278 37.2687 14.7346 35.362 14.7346 32.9351C14.7346 30.5083 12.8277 28.6015 10.401 28.6015Z" fill="#333333"/>
<path d="M50.7033 23.4013H35.9691C35.4491 23.4013 35.1024 23.0547 35.1024 22.5346C35.1024 22.0146 35.4491 21.668 35.9691 21.668H50.7033C51.2233 21.668 51.57 22.0146 51.57 22.5346C51.57 23.0546 51.2233 23.4013 50.7033 23.4013Z" fill="#333333"/>
<path d="M13.8674 15.6008H0.866681C0.346652 15.6008 0 15.2541 0 14.7341C0 14.2141 0.346652 13.8674 0.866681 13.8674H13.8674C14.3874 13.8674 14.7341 14.2141 14.7341 14.7341C14.7342 15.254 14.3874 15.6008 13.8674 15.6008Z" fill="#333333"/>
<path d="M10.4006 11.2671H0.866681C0.346652 11.2671 0 10.9204 0 10.4004C0 9.88034 0.346652 9.53369 0.866681 9.53369H10.4006C10.9206 9.53369 11.2673 9.88034 11.2673 10.4004C11.2673 10.9204 10.9206 11.2671 10.4006 11.2671Z" fill="#333333"/>
<path d="M49.2292 33.8019H45.9356V32.9353C45.9356 30.5085 44.0289 28.6017 41.602 28.6017C39.1752 28.6017 37.2684 30.5084 37.2684 32.9353V33.8019H26.0012V6.93372H36.6618C37.8753 6.93372 38.9153 7.45375 39.6954 8.40717L45.4157 15.6009L45.5023 15.6876H49.1425C50.7026 15.6876 51.916 16.9876 51.916 18.4611V31.0284C52.0027 32.5019 50.7026 33.8019 49.2292 33.8019ZM47.5824 32.0685H49.1425C49.7492 32.0685 50.1826 31.5485 50.1826 30.9418V18.4611C50.1826 17.8544 49.6625 17.421 49.1425 17.421H45.5023C44.8956 17.421 44.3756 17.161 44.0289 16.7276L38.3085 9.53386C37.9619 8.92719 37.3551 8.66718 36.6618 8.66718H27.7347V32.0685H35.6218C36.0552 29.1217 38.5686 26.8682 41.6021 26.8682C44.6356 26.8682 47.149 29.1217 47.5824 32.0685Z" fill="#333333"/>
<path d="M27.7349 33.802H14.7342V32.9353C14.7342 30.5086 12.8274 28.6017 10.4006 28.6017C7.97371 28.6017 6.06697 30.5085 6.06697 32.9353V33.802H2.60014C1.1267 33.802 0 32.6753 0 31.2019V21.668H27.7349V33.802ZM16.3809 32.0685H26.0014V23.4014H1.73346V31.2019C1.73346 31.7219 2.08012 32.0685 2.60014 32.0685H4.42025C4.85364 29.1218 7.36704 26.8683 10.4006 26.8683C13.4341 26.8683 15.9475 29.1218 16.3809 32.0685Z" fill="#333333"/>
<path d="M12.1336 32.935C12.1336 33.8884 11.3535 34.6685 10.4001 34.6685C9.44667 34.6685 8.66663 33.8884 8.66663 32.935C8.66663 31.9816 9.44667 31.2015 10.4001 31.2015C11.3535 31.2015 12.1336 31.9817 12.1336 32.935Z" fill="#333333"/>
<path d="M43.3359 32.935C43.3359 33.8884 42.5559 34.6685 41.6025 34.6685C40.6491 34.6685 39.869 33.8884 39.869 32.935C39.869 31.9816 40.6491 31.2015 41.6025 31.2015C42.5559 31.2016 43.3359 31.9817 43.3359 32.935Z" fill="#333333"/>
<path d="M44.8093 14.7341H33.542C32.242 14.7341 31.2019 13.6941 31.2019 12.394V6.93372H36.6622C37.8756 6.93372 38.9157 7.45375 39.6957 8.40717L44.8093 14.7341ZM32.9354 8.66718V12.394C32.9354 12.7407 33.1954 13.0007 33.542 13.0007H41.2558L38.3957 9.44712C37.9623 8.92709 37.3556 8.66708 36.6622 8.66708L32.9354 8.66718Z" fill="#333333"/>
</svg>
